<?xml version="1.0" standalone="no"?>
<!DOCTYPE svg PUBLIC "-//W3C//DTD SVG 20010904//EN"
 "http://www.w3.org/TR/2001/REC-SVG-20010904/DTD/svg10.dtd">
<svg version="1.0" xmlns="http://www.w3.org/2000/svg"
 width="654.000000pt" height="1006.000000pt" viewBox="0 0 654.000000 1006.000000"
 preserveAspectRatio="xMidYMid meet">
	<metadata>
		Created by potrace 1.13, written by Peter Selinger 2001-2015. Generate with http://www.online-convert.com/
	</metadata>
	<g transform="translate(0.000000,1006.000000) scale(0.100000,-0.100000)"
	stroke="none">
		<path class="logo-piece" d="M3160 9990 c-88 -23 -196 -76 -277 -135 -102 -74 -270 -265 -296
		-337 -5 -13 -17 -18 -44 -18 -49 -1 -114 -30 -141 -65 -52 -66 -53 -165 -3
		-225 l28 -34 -24 -86 c-13 -47 -32 -137 -43 -201 -19 -119 -37 -339 -27 -339
		2 0 50 18 104 40 590 236 1242 222 1802 -41 46 -21 86 -39 89 -39 3 0 2 58 -1
		129 -8 146 -38 338 -72 456 -23 78 -23 80 -5 100 27 29 40 70 40 126 0 101
		-77 179 -176 179 -24 0 -37 5 -41 18 -26 72 -194 263 -296 337 -188 138 -414
		187 -617 135z"/>
		<path class="logo-piece" d="M3049 8636 c-211 -24 -408 -75 -615 -157 l-104 -42 0 -1838 0 -1839
		955 0 955 0 0 1840 0 1841 -47 20 c-164 71 -394 137 -573 164 -145 22 -427 27
		-571 11z"/>
		<path class="logo-piece" d="M450 8384 c-36 -7 -77 -19 -92 -25 l-28 -11 0 -584 0 -583 58 -68
		c86 -99 270 -263 309 -275 5 -2 44 62 85 142 177 343 379 635 600 866 48 50
		88 96 88 101 0 5 -24 31 -52 59 -303 291 -684 440 -968 378z"/>
		<path class="logo-piece" d="M5875 8389 c-185 -26 -428 -142 -605 -287 -75 -61 -160 -144 -160
		-155 0 -5 40 -51 88 -101 221 -231 423 -523 600 -866 41 -80 80 -144 85 -142
		39 12 234 185 309 275 l48 58 0 589 c0 554 -1 590 -18 599 -32 17 -170 41
		-229 40 -32 -1 -85 -5 -118 -10z"/>
		<path class="logo-piece" d="M4330 7570 l0 -820 740 0 740 0 -26 58 c-63 143 -226 425 -339 587
		-212 304 -504 604 -771 791 -138 97 -315 204 -339 204 -3 0 -5 -369 -5 -820z"/>
		<path class="logo-piece" d="M2110 8317 c-232 -139 -382 -257 -581 -456 -214 -215 -392 -446 -552
		-719 -70 -117 -197 -364 -197 -382 0 -7 243 -10 730 -10 l730 0 0 815 c0 656
		-2 815 -13 815 -7 0 -60 -28 -117 -63z"/>
		<path class="logo-piece" d="M6341 7805 c-1 -338 2 -485 10 -475 28 41 92 178 115 247 92 273 63
		513 -80 669 l-45 49 0 -490z"/>
		<path class="logo-piece" d="M177 8228 c-129 -159 -151 -390 -63 -651 25 -75 101 -237 111 -237 3
		0 5 209 5 465 0 281 -4 465 -9 465 -5 0 -25 -19 -44 -42z"/>
		<path class="logo-piece" d="M713 6613 c-194 -459 -331 -1067 -358 -1578 -3 -60 -8 -149 -11 -197
		l-6 -88 951 0 951 0 0 950 0 950 -756 0 -755 0 -16 -37z"/>
		<path class="logo-piece" d="M4330 5700 l0 -950 955 0 c903 0 955 1 955 18 0 9 -5 105 -10 212
		-27 536 -131 1031 -322 1538 l-50 132 -764 0 -764 0 0 -950z"/>
		<path class="logo-piece" d="M340 4643 c1 -87 24 -432 36 -533 51 -456 165 -910 329 -1317 l17
		-43 759 0 759 0 0 950 0 950 -950 0 c-522 0 -950 -3 -950 -7z"/>
		<path class="logo-piece" d="M2330 3700 l0 -950 955 0 955 0 0 950 0 950 -955 0 -955 0 0 -950z"/>
		<path class="logo-piece" d="M4330 3700 l0 -950 766 2 767 3 39 100 c143 368 247 784 298 1199 16
		129 39 462 40 574 l0 22 -955 0 -955 0 0 -950z"/>
		<path class="logo-piece" d="M770 2645 c0 -3 31 -67 69 -143 197 -394 406 -688 691 -973 210 -210
		419 -372 633 -488 l77 -43 0 826 0 826 -735 0 c-404 0 -735 -2 -735 -5z"/>
		<path class="logo-piece" d="M2330 1802 l0 -848 78 -33 c163 -71 348 -124 542 -157 150 -25 533
		-25 680 0 211 36 462 110 583 172 l27 15 0 849 0 850 -955 0 -955 0 0 -848z"/>
		<path class="logo-piece" d="M4330 1819 l0 -830 58 32 c486 276 868 653 1189 1176 66 107 233 425
		233 443 0 6 -276 10 -740 10 l-740 0 0 -831z"/>
		<path class="logo-piece" d="M648 2501 c-92 -70 -181 -153 -255 -240 l-63 -74 0 -573 0 -573 28
		-15 c37 -19 169 -46 226 -46 227 0 514 116 736 298 75 61 160 144 160 155 0 5
		-40 51 -88 101 -221 232 -425 526 -600 866 -41 80 -75 146 -77 148 -1 1 -31
		-20 -67 -47z"/>
		<path class="logo-piece" d="M5821 2462 c-153 -319 -407 -691 -633 -927 -48 -51 -88 -97 -88 -102
		0 -11 85 -94 160 -155 129 -105 312 -207 455 -251 87 -27 208 -47 283 -47 51
		0 171 23 215 41 l27 11 0 584 0 583 -58 68 c-83 97 -238 235 -308 276 -7 4
		-27 -26 -53 -81z"/>
		<path class="logo-piece" d="M193 1963 c-135 -261 -159 -533 -65 -719 32 -63 96 -143 106 -133 3
		3 5 215 4 470 l-3 464 -42 -82z"/>
		<path class="logo-piece" d="M6340 1568 l1 -473 41 45 c137 152 165 394 74 663 -25 75 -101 237
		-111 237 -3 0 -5 -213 -5 -472z"/>
		<path class="logo-piece" d="M2930 647 c0 -43 56 -249 90 -329 85 -206 197 -304 313 -275 98 25
		212 192 271 400 28 96 52 214 45 221 -2 2 -26 0 -54 -5 -140 -25 -552 -20
		-647 7 -14 4 -18 -1 -18 -19z"/>
	</g>
</svg>
